<svg xmlns="http://www.w3.org/2000/svg" viewBox="0 0 16 16" width="64" height="64" shape-rendering="crispEdges" role="img" aria-label="Diamond Helmet">
  <!-- Vanilla item/diamond_helmet.png, one rect per pixel run. -->
  <g fill="#0e3f36"><rect x="5" y="3" width="6" height="1"/><rect x="4" y="4" width="1" height="1"/><rect x="3" y="5" width="1" height="1"/><rect x="3" y="6" width="1" height="1"/><rect x="3" y="7" width="1" height="1"/><rect x="6" y="7" width="3" height="1"/><rect x="3" y="8" width="1" height="1"/><rect x="5" y="8" width="1" height="1"/><rect x="3" y="9" width="1" height="1"/><rect x="5" y="9" width="1" height="1"/><rect x="3" y="10" width="1" height="1"/><rect x="4" y="11" width="1" height="1"/></g>
  <g fill="#20c5b5"><rect x="5" y="4" width="1" height="1"/><rect x="4" y="5" width="1" height="1"/><rect x="10" y="5" width="1" height="1"/><rect x="9" y="6" width="3" height="1"/><rect x="11" y="7" width="1" height="1"/><rect x="11" y="8" width="1" height="1"/><rect x="4" y="10" width="1" height="1"/></g>
  <g fill="#4aedd9"><rect x="6" y="4" width="4" height="1"/><rect x="8" y="5" width="2" height="1"/><rect x="4" y="6" width="1" height="1"/><rect x="7" y="6" width="2" height="1"/><rect x="4" y="7" width="2" height="1"/><rect x="4" y="8" width="1" height="1"/><rect x="4" y="9" width="1" height="1"/></g>
  <g fill="#1aaaa7"><rect x="10" y="4" width="1" height="1"/><rect x="11" y="5" width="1" height="1"/><rect x="10" y="7" width="1" height="1"/><rect x="11" y="9" width="1" height="1"/><rect x="11" y="10" width="1" height="1"/></g>
  <g fill="#082520"><rect x="11" y="4" width="1" height="1"/><rect x="12" y="5" width="1" height="1"/><rect x="12" y="6" width="1" height="1"/><rect x="9" y="7" width="1" height="1"/><rect x="12" y="7" width="1" height="1"/><rect x="6" y="8" width="5" height="1"/><rect x="12" y="8" width="1" height="1"/><rect x="6" y="9" width="5" height="1"/><rect x="12" y="9" width="1" height="1"/><rect x="5" y="10" width="6" height="1"/><rect x="12" y="10" width="1" height="1"/><rect x="5" y="11" width="1" height="1"/><rect x="10" y="11" width="2" height="1"/></g>
  <g fill="#a1fbe8"><rect x="5" y="5" width="1" height="1"/><rect x="7" y="5" width="1" height="1"/><rect x="5" y="6" width="2" height="1"/></g>
  <g fill="#ffffff"><rect x="6" y="5" width="1" height="1"/></g>
</svg>
