<svg xmlns="http://www.w3.org/2000/svg" viewBox="0 0 64 64" width="64" height="64"> <defs><filter id="g" x="-60%" y="-60%" width="220%" height="220%"><feGaussianBlur stdDeviation="2.2" result="b"/><feMerge><feMergeNode in="b"/><feMergeNode in="SourceGraphic"/></feMerge></filter> <linearGradient id="hs" x1="0" y1="0" x2="0" y2="1"> <stop offset="0" stop-color="#d9a877"/><stop offset="1" stop-color="#b07f52"/></linearGradient> </defs> <path d="M32 4 L58 18 L32 32 L6 18 Z" fill="#5a4122"/> <path d="M6 18 L32 32 L32 60 L6 46 Z" fill="url(#hs)"/> <path d="M32 32 L58 18 L58 46 L32 60 Z" fill="#8f6440"/> <path d="M6 18 L32 32 L32 41 L6 27 Z" fill="#3b2a17"/> <path d="M32 32 L58 18 L58 27 L32 41 Z" fill="#2b1d0f"/> <g filter="url(#g)"> <path d="M11 30 L20 35 L20 41 L11 36 Z" fill="#fff"/> <path d="M44 35 L53 30 L53 36 L44 41 Z" fill="#fff"/> </g> <path d="M14 42 L26 49 L26 53 L14 46 Z" fill="#5c4026" opacity=".85"/> <path d="M38 49 L50 42 L50 46 L38 53 Z" fill="#46301c" opacity=".85"/> <path d="M32 4 L58 18 L32 32 L6 18 Z" fill="none" stroke="#0f0f12" stroke-width="1.4"/> <path d="M6 18 L32 32 L32 60 L6 46 Z" fill="none" stroke="#0f0f12" stroke-width="1.4"/> <path d="M32 32 L58 18 L58 46 L32 60 Z" fill="none" stroke="#0f0f12" stroke-width="1.4"/> </svg>