<svg xmlns="http://www.w3.org/2000/svg" viewBox="0 0 16 16" width="64" height="64" shape-rendering="crispEdges" role="img" aria-label="Soul Lantern">
  <!-- Vanilla item/soul_lantern.png, one rect per pixel run. -->
  <g fill="#3e4453"><rect x="8" y="1" width="1" height="1"/><rect x="7" y="2" width="1" height="1"/><rect x="8" y="3" width="1" height="1"/><rect x="7" y="4" width="1" height="1"/><rect x="6" y="5" width="1" height="1"/><rect x="9" y="5" width="1" height="1"/><rect x="7" y="6" width="2" height="1"/><rect x="5" y="7" width="1" height="1"/><rect x="10" y="7" width="1" height="1"/><rect x="5" y="8" width="1" height="1"/><rect x="10" y="8" width="1" height="1"/><rect x="5" y="12" width="1" height="1"/><rect x="10" y="12" width="1" height="1"/><rect x="5" y="13" width="1" height="1"/><rect x="10" y="13" width="1" height="1"/></g>
  <g fill="#495065"><rect x="8" y="2" width="1" height="1"/><rect x="7" y="3" width="1" height="1"/><rect x="7" y="5" width="2" height="1"/><rect x="6" y="6" width="1" height="1"/><rect x="9" y="6" width="1" height="1"/><rect x="6" y="7" width="4" height="1"/><rect x="5" y="9" width="1" height="1"/><rect x="10" y="9" width="1" height="1"/><rect x="5" y="10" width="1" height="1"/><rect x="10" y="10" width="1" height="1"/><rect x="5" y="11" width="1" height="1"/><rect x="10" y="11" width="1" height="1"/><rect x="6" y="13" width="4" height="1"/></g>
  <g fill="#03969a"><rect x="6" y="8" width="1" height="1"/><rect x="9" y="8" width="1" height="1"/></g>
  <g fill="#2ac9cf"><rect x="7" y="8" width="2" height="1"/><rect x="6" y="9" width="1" height="1"/><rect x="9" y="9" width="1" height="1"/><rect x="6" y="12" width="1" height="1"/><rect x="9" y="12" width="1" height="1"/></g>
  <g fill="#74f1f5"><rect x="7" y="9" width="2" height="1"/><rect x="6" y="10" width="1" height="1"/><rect x="9" y="10" width="1" height="1"/><rect x="6" y="11" width="1" height="1"/><rect x="9" y="11" width="1" height="1"/><rect x="7" y="12" width="2" height="1"/></g>
  <g fill="#ffffff"><rect x="7" y="10" width="1" height="1"/><rect x="8" y="11" width="1" height="1"/></g>
  <g fill="#cffdff"><rect x="8" y="10" width="1" height="1"/><rect x="7" y="11" width="1" height="1"/></g>
</svg>
